<svg width="134" height="29" viewBox="0 0 134 29" fill="none" xmlns="http://www.w3.org/2000/svg">
<path d="M3.39728 2.51739C5.33708 2.37978 7.04864 3.74083 7.29835 5.61959C7.53546 7.40434 6.32332 9.13051 4.50207 9.53469C4.04559 9.63597 3.53824 9.60781 3.05516 9.66957C1.87957 9.82004 0.872956 10.3144 0.0353006 11.1528L0.0266046 11.1573L0.0167848 11.1565L0.00904034 11.1505L0.00589527 11.1414C0.0055841 11.1348 0.00729625 11.1289 0.0110302 11.1237C0.01632 11.1161 0.0189641 11.1078 0.0189641 11.0987C0.00745103 9.71453 0.00387355 8.03862 0.00822986 6.071C0.0119638 4.21177 1.46961 2.65363 3.39728 2.51739Z" fill="white"/>
<path d="M3.59989 18.0616C1.1308 18.042 -0.639108 15.5938 0.219707 13.2999C0.693455 12.0338 1.86312 11.1106 3.24936 10.9652C3.67084 10.9212 4.17726 10.9325 4.58379 10.8562C6.67155 10.4652 8.28416 8.85623 8.61042 6.80762C8.68277 6.35303 8.64496 5.81125 8.75138 5.32896C9.24426 3.09688 11.7824 1.84438 13.9141 2.85347C15.0254 3.38026 15.7703 4.37482 15.9547 5.56284C15.9927 5.80656 16.0049 6.10841 15.9916 6.46838C15.7498 12.9362 10.2683 18.1151 3.59989 18.0616Z" fill="white"/>
<path d="M6.70946 19.0912C6.69826 19.0861 6.69063 19.0785 6.68659 19.0685C6.68579 19.0665 6.68545 19.0644 6.68557 19.0622C6.68569 19.0601 6.68628 19.058 6.6873 19.0561C6.68832 19.0542 6.68974 19.0526 6.69147 19.0513C6.69319 19.05 6.69519 19.049 6.69732 19.0485C9.23052 18.4642 11.4252 17.2887 13.2813 15.5222C13.3146 15.4904 13.3449 15.4928 13.3723 15.5294C13.6701 15.9245 13.9809 16.3491 14.2302 16.7547C15.2542 18.4204 15.8344 20.2247 15.9707 22.1675C15.998 22.5593 16.0066 22.8619 15.9963 23.0753C15.9044 24.9632 14.3366 26.4864 12.3604 26.4977C10.6105 26.5072 9.07213 25.3042 8.73981 23.6212C8.6614 23.2229 8.68567 22.6712 8.61892 22.2502C8.41293 20.955 7.78484 19.9067 6.73466 19.1053C6.73 19.1013 6.7216 19.0967 6.70946 19.0912Z" fill="white"/>
<path d="M3.00938 26.442C1.52325 26.1813 0.327448 25.0183 0.0614024 23.5714C0.0249961 23.3734 0.00679378 23.0717 0.00679378 22.6663C0.00648262 21.0705 0.00617054 19.4745 0.00585938 17.8784C0.00585938 17.8626 0.0117717 17.8601 0.023596 17.8707C0.995363 18.7412 2.01661 19.273 3.35057 19.3616C3.35181 19.3619 3.4713 19.3658 3.70903 19.3734C5.44579 19.4292 6.91698 20.5764 7.25631 22.2426C7.75853 24.7063 5.54521 26.8866 3.00938 26.442Z" fill="white"/>
<path d="M29.6154 12.364L35.4014 6.05H39.9994L34.1034 12.408L40.3074 22H35.7754L31.4634 15.268L29.6154 17.292V22H25.8534V6.05H29.6154V12.364ZM48.579 13.64C48.183 13.596 47.919 13.574 47.589 13.574C45.851 13.574 44.927 14.212 44.927 16.06V22H41.297V10.164H44.795V12.408C45.345 11.022 46.335 10.142 48.029 10.076C48.205 10.076 48.403 10.076 48.579 10.098V13.64ZM61.8091 18.282C60.7531 21.076 58.2891 22.286 55.9131 22.286C52.0631 22.286 49.4231 19.932 49.4231 16.016C49.4231 12.232 52.3051 9.812 55.7591 9.812C59.6751 9.812 62.0951 12.804 61.8531 17.006H53.0751C53.1851 18.678 54.4831 19.47 55.8031 19.47C57.1671 19.47 58.0471 18.986 58.4651 18.282H61.8091ZM53.1191 14.806H58.2451C58.2011 13.332 57.1231 12.584 55.7591 12.584C54.4831 12.584 53.3171 13.244 53.1191 14.806ZM71.0077 14.146C71.0077 12.76 70.3037 12.254 69.0057 12.254C67.8397 12.254 67.0257 12.848 66.8937 13.992H63.5057C63.6597 11.77 65.8157 9.79 69.3137 9.79C72.7017 9.79 74.6597 11.154 74.5937 14.762L74.5497 17.336C74.5277 18.876 74.5937 20.988 74.8137 22H71.2497L71.2057 20.57C70.3257 21.824 68.9177 22.286 67.2237 22.286C64.9797 22.286 63.1317 20.966 63.1317 18.81C63.1317 15.906 66.4097 14.938 71.0077 14.608V14.146ZM66.8717 18.546C66.8717 19.316 67.5977 19.822 68.5437 19.822C69.9957 19.822 71.0957 19.206 71.0957 17.028V16.742C68.5657 16.962 66.8717 17.292 66.8717 18.546Z" fill="white"/>
<path d="M86.6826 6.05C91.7426 6.05 95.3726 7.942 95.3726 14.014C95.3726 20.108 91.7426 22 86.6826 22H82.3266V6.05H86.6826ZM86.6166 7.942H84.5706V20.108H86.6166C89.9166 20.108 93.0846 19.448 93.0846 14.014C93.0846 8.602 89.9166 7.942 86.6166 7.942ZM108.671 16.126C108.671 20.416 105.745 22.286 102.995 22.286C100.245 22.286 97.3189 20.416 97.3189 16.126C97.3189 11.836 100.245 9.966 102.995 9.966C105.745 9.966 108.671 11.836 108.671 16.126ZM102.995 20.526C104.799 20.526 106.537 19.162 106.537 16.126C106.537 12.98 104.799 11.726 102.995 11.726C101.191 11.726 99.4529 12.892 99.4529 16.126C99.4529 19.272 101.191 20.526 102.995 20.526ZM121.093 14.124H119.069C118.783 12.716 117.551 11.726 116.011 11.726C114.229 11.726 112.601 13.112 112.601 16.082C112.601 19.096 114.251 20.526 116.011 20.526C117.683 20.526 118.871 19.404 119.157 18.15H121.225C120.829 20.372 118.695 22.286 115.945 22.286C112.557 22.286 110.423 19.712 110.423 16.104C110.423 12.584 112.645 9.966 116.143 9.966C119.003 9.966 120.829 12.122 121.093 14.124ZM130.367 13.618C130.059 12.21 128.959 11.66 127.573 11.66C126.407 11.66 125.087 12.078 125.087 13.156C125.087 14.102 125.747 14.542 126.891 14.762L128.563 15.092C130.719 15.51 132.611 16.324 132.611 18.612C132.611 20.944 130.499 22.286 127.793 22.286C124.691 22.286 122.931 20.24 122.711 18.172H124.823C125.131 19.69 126.077 20.592 127.837 20.592C129.355 20.592 130.587 19.932 130.587 18.832C130.587 17.644 129.465 17.138 128.189 16.874L126.429 16.522C124.823 16.192 123.063 15.444 123.063 13.244C123.063 11.154 125.175 9.944 127.793 9.944C130.345 9.944 132.083 11.374 132.457 13.618H130.367Z" fill="white"/>
</svg>
